<svg width="136" height="24" viewBox="0 0 136 24" fill="none" xmlns="http://www.w3.org/2000/svg">
<path d="M11.3274 1.36274C11.6026 0.805306 12.3974 0.805305 12.6726 1.36274L15.3522 6.79232C15.4615 7.01367 15.6726 7.1671 15.9169 7.2026L21.9088 8.07327C22.524 8.16266 22.7696 8.91864 22.3245 9.35254L17.9887 13.5789C17.8119 13.7512 17.7313 13.9994 17.773 14.2427L18.7965 20.2104C18.9016 20.8231 18.2585 21.2903 17.7083 21.001L12.349 18.1835C12.1305 18.0686 11.8695 18.0686 11.651 18.1835L6.29168 21.001C5.74146 21.2903 5.09839 20.8231 5.20347 20.2104L6.22701 14.2427C6.26874 13.9994 6.18807 13.7512 6.01131 13.5789L1.67553 9.35254C1.2304 8.91864 1.47603 8.16266 2.09119 8.07327L8.08309 7.2026C8.32737 7.1671 8.53854 7.01367 8.64779 6.79232L11.3274 1.36274Z" fill="#EFBF14"/>
<path d="M39.3274 1.36274C39.6026 0.805306 40.3974 0.805305 40.6726 1.36274L43.3522 6.79232C43.4615 7.01367 43.6726 7.1671 43.9169 7.2026L49.9088 8.07327C50.524 8.16266 50.7696 8.91864 50.3245 9.35254L45.9887 13.5789C45.8119 13.7512 45.7313 13.9994 45.773 14.2427L46.7965 20.2104C46.9016 20.8231 46.2585 21.2903 45.7083 21.001L40.349 18.1835C40.1305 18.0686 39.8695 18.0686 39.651 18.1835L34.2917 21.001C33.7415 21.2903 33.0984 20.8231 33.2035 20.2104L34.227 14.2427C34.2687 13.9994 34.1881 13.7512 34.0113 13.5789L29.6755 9.35254C29.2304 8.91864 29.476 8.16266 30.0912 8.07327L36.0831 7.2026C36.3274 7.1671 36.5385 7.01367 36.6478 6.79232L39.3274 1.36274Z" fill="#EFBF14"/>
<path d="M67.3274 1.36274C67.6026 0.805306 68.3974 0.805305 68.6726 1.36274L71.3522 6.79232C71.4615 7.01367 71.6726 7.1671 71.9169 7.2026L77.9088 8.07327C78.524 8.16266 78.7696 8.91864 78.3245 9.35254L73.9887 13.5789C73.8119 13.7512 73.7313 13.9994 73.773 14.2427L74.7965 20.2104C74.9016 20.8231 74.2585 21.2903 73.7083 21.001L68.349 18.1835C68.1305 18.0686 67.8695 18.0686 67.651 18.1835L62.2917 21.001C61.7415 21.2903 61.0984 20.8231 61.2035 20.2104L62.227 14.2427C62.2687 13.9994 62.1881 13.7512 62.0113 13.5789L57.6755 9.35254C57.2304 8.91864 57.476 8.16266 58.0912 8.07327L64.0831 7.2026C64.3274 7.1671 64.5385 7.01367 64.6478 6.79232L67.3274 1.36274Z" fill="#EFBF14"/>
<path d="M95.3274 1.36274C95.6026 0.805306 96.3974 0.805305 96.6726 1.36274L99.3522 6.79232C99.4615 7.01367 99.6726 7.1671 99.9169 7.2026L105.909 8.07327C106.524 8.16266 106.77 8.91864 106.324 9.35254L101.989 13.5789C101.812 13.7512 101.731 13.9994 101.773 14.2427L102.797 20.2104C102.902 20.8231 102.259 21.2903 101.708 21.001L96.349 18.1835C96.1305 18.0686 95.8695 18.0686 95.651 18.1835L90.2917 21.001C89.7415 21.2903 89.0984 20.8231 89.2035 20.2104L90.227 14.2427C90.2687 13.9994 90.1881 13.7512 90.0113 13.5789L85.6755 9.35254C85.2304 8.91864 85.476 8.16266 86.0912 8.07327L92.0831 7.2026C92.3274 7.1671 92.5385 7.01367 92.6478 6.79232L95.3274 1.36274Z" fill="#EFBF14"/>
<path d="M123.327 1.36274C123.603 0.805306 124.397 0.805305 124.673 1.36274L127.352 6.79232C127.461 7.01367 127.673 7.1671 127.917 7.2026L133.909 8.07327C134.524 8.16266 134.77 8.91864 134.324 9.35254L129.989 13.5789C129.812 13.7512 129.731 13.9994 129.773 14.2427L130.797 20.2104C130.902 20.8231 130.259 21.2903 129.708 21.001L124.349 18.1835C124.131 18.0686 123.869 18.0686 123.651 18.1835L118.292 21.001C117.741 21.2903 117.098 20.8231 117.203 20.2104L118.227 14.2427C118.269 13.9994 118.188 13.7512 118.011 13.5789L113.676 9.35254C113.23 8.91864 113.476 8.16266 114.091 8.07327L120.083 7.2026C120.327 7.1671 120.539 7.01367 120.648 6.79232L123.327 1.36274Z" fill="#EFBF14"/>
</svg>
